<?xml version="1.0" encoding="utf-8"?>
<svg viewBox="45.908 103.278 408.183 322.812" xmlns="http://www.w3.org/2000/svg">
  <g style="" transform="matrix(0.853419, 0, 0, 0.853419, 124.18042, 81.486839)">
    <path fill="#8080F2" d="M 101.154 124.581 L 145.615 98.912 C 146.728 98.269 148.099 98.269 149.212 98.912 L 193.674 124.581 C 194.785 125.224 195.472 126.411 195.472 127.696 L 195.472 179.034 C 195.472 180.319 194.785 181.507 193.674 182.15 L 149.212 207.819 C 148.099 208.462 146.728 208.462 145.615 207.819 L 101.154 182.15 C 100.042 181.507 99.356 180.32 99.356 179.034 L 99.356 127.696 C 99.357 126.411 100.043 125.224 101.154 124.581" style=""/>
    <path fill="#4B32C3" d="M 219.024 114.324 C 219.024 112.965 218.195 111.709 217.018 111.029 L 149.295 71.988 C 148.118 71.308 146.645 71.308 145.468 71.988 L 77.805 111.029 C 76.627 111.709 75.816 112.965 75.816 114.324 L 75.816 192.405 C 75.816 193.765 76.639 195.02 77.816 195.701 L 145.534 234.741 C 146.711 235.42 148.186 235.42 149.363 234.741 L 217.029 195.701 C 218.207 195.02 219.024 193.764 219.024 192.405 L 219.024 114.324 Z M 172.005 278.484 C 171.803 279.069 170.726 279.579 169.796 279.588 L 125.245 279.588 C 124.281 279.582 123.617 279.086 123.442 278.445 L 115.947 249.286 C 111.253 247.469 106.673 245.278 102.247 242.756 L 75.722 259.018 C 75.166 259.289 74.044 258.888 73.38 258.237 L 41.877 226.735 C 41.199 226.048 41.081 225.228 41.411 224.651 L 57.803 196.917 C 55.656 192.883 53.771 188.735 52.178 184.501 L 21.507 177.145 C 20.922 176.943 20.412 175.866 20.403 174.936 L 20.403 130.385 C 20.409 129.421 20.905 128.757 21.546 128.582 L 52.171 120.711 C 53.766 116.465 55.655 112.304 57.808 108.258 L 41.028 80.89 C 40.757 80.333 41.158 79.211 41.809 78.548 L 73.311 47.044 C 73.998 46.368 74.818 46.249 75.395 46.578 L 102.192 62.416 C 106.607 59.895 111.177 57.701 115.86 55.88 L 122.873 26.638 C 123.075 26.052 124.152 25.543 125.082 25.534 L 169.634 25.534 C 170.598 25.54 171.262 26.036 171.437 26.677 L 178.934 55.848 C 183.632 57.669 188.216 59.865 192.646 62.393 L 219.063 46.195 C 219.62 45.924 220.742 46.326 221.406 46.977 L 252.909 78.479 C 253.586 79.165 253.705 79.985 253.375 80.563 L 237.04 108.199 C 239.197 112.247 241.091 116.411 242.69 120.659 L 273.353 128.013 C 273.939 128.215 274.448 129.292 274.457 130.222 L 274.457 174.774 C 274.451 175.738 273.955 176.401 273.314 176.577 L 242.721 184.44 C 241.125 188.683 239.238 192.842 237.086 196.885 L 253.852 224.23 C 254.123 224.786 253.721 225.908 253.071 226.572 L 221.567 258.075 C 220.881 258.753 220.062 258.871 219.483 258.542 L 192.693 242.707 C 188.275 245.228 183.703 247.421 179.019 249.241 L 172.005 278.484 Z" style=""/>
  </g>
  <path d="M 45.908 424.902 L 47.205 398.654 L 45.908 350.369 L 86.415 350.369 L 85.226 361.927 L 60.923 361.927 L 60.274 381.046 L 81.878 381.046 L 80.69 392.496 L 59.842 392.496 L 59.734 396.817 L 60.49 413.452 L 86.631 413.452 L 85.443 424.902 L 45.908 424.902 Z M 100.239 403.406 C 106.361 409.527 112.482 412.588 118.602 412.588 C 121.771 412.588 124.31 411.85 126.218 410.373 C 128.127 408.898 129.08 406.99 129.08 404.649 C 129.08 402.308 127.928 400.327 125.624 398.708 C 123.319 397.087 120.529 395.665 117.252 394.44 C 113.975 393.217 110.717 391.829 107.476 390.282 C 104.236 388.734 101.464 386.518 99.159 383.639 C 96.855 380.758 95.702 377.266 95.702 373.162 C 95.702 366.68 98.404 361.081 103.804 356.365 C 109.204 351.648 115.613 349.29 123.032 349.29 C 126.416 349.29 129.692 349.649 132.861 350.369 C 136.03 351.089 139.09 352.133 142.043 353.501 L 134.697 369.273 C 132.682 367.688 129.926 366.229 126.435 364.898 C 122.941 363.565 119.88 362.9 117.252 362.9 C 114.624 362.9 112.5 363.529 110.879 364.79 C 109.258 366.049 108.449 367.725 108.449 369.812 C 108.449 371.901 109.601 373.756 111.906 375.375 C 114.21 376.996 117.001 378.418 120.277 379.642 C 123.553 380.866 126.83 382.216 130.107 383.693 C 133.382 385.169 136.173 387.347 138.477 390.228 C 140.782 393.109 141.934 396.601 141.934 400.705 C 141.934 407.476 139.234 413.399 133.833 418.475 C 128.433 423.552 122.131 426.09 114.93 426.09 C 109.529 426.09 104.74 424.793 100.564 422.201 C 96.891 419.968 94.299 417.988 92.786 416.261 L 91.814 415.072 L 100.239 403.406 Z M 153.379 424.902 L 154.674 398.654 L 153.379 352.53 L 168.717 349.828 L 167.205 396.817 L 167.961 414.315 L 190.105 412.588 L 188.917 424.902 L 153.379 424.902 Z M 211.495 369.92 L 210.198 396.817 L 211.387 422.201 L 196.911 424.902 L 198.208 398.654 L 197.02 372.621 L 211.495 369.92 Z M 196.264 354.095 C 196.264 354.095 196.264 353.493 196.264 352.287 C 196.264 351.08 197.2 349.523 199.072 347.615 C 200.944 345.706 203.105 344.752 205.553 344.752 C 208.001 344.752 209.874 345.418 211.17 346.75 C 212.467 348.084 213.114 350.081 213.114 352.746 C 213.114 355.409 212.197 357.697 210.36 359.605 C 208.523 361.512 206.4 362.467 203.987 362.467 C 201.575 362.467 199.685 361.674 198.316 360.091 C 196.948 358.507 196.264 356.508 196.264 354.095 Z M 254.698 397.573 C 254.698 392.604 254.265 389.292 253.401 387.636 C 252.536 385.98 250.521 385.152 247.353 385.152 C 244.184 385.152 240.582 386.412 236.55 388.931 L 236.55 396.817 L 237.739 422.201 L 223.264 424.902 L 224.56 398.654 C 224.272 389.003 223.481 380.362 222.184 372.729 L 235.253 369.92 C 235.757 374.097 236.118 378.166 236.334 382.126 C 237.415 380.686 238.639 379.264 240.006 377.86 C 241.375 376.455 243.535 374.871 246.487 373.107 C 249.44 371.343 252.556 370.461 255.832 370.461 C 259.108 370.461 261.863 371.739 264.095 374.295 C 266.327 376.852 267.443 380.327 267.443 384.719 L 266.795 396.817 L 267.983 422.742 L 253.401 425.442 L 254.698 397.573 Z M 284.08 372.621 L 284.08 360.846 L 298.662 358.039 L 297.259 372.621 L 310.329 372.621 L 309.14 381.479 L 296.827 381.479 L 296.286 404.054 C 296.286 407.439 296.61 409.689 297.259 410.805 C 297.907 411.922 299.095 412.48 300.824 412.48 C 302.551 412.48 304.856 412.084 307.736 411.291 L 308.385 418.961 C 303.631 422.921 299.455 424.902 295.855 424.902 C 292.254 424.902 289.301 423.587 286.997 420.96 C 284.693 418.331 283.541 414.892 283.541 410.643 L 284.188 398.545 L 284.08 381.479 L 276.627 381.479 L 277.815 372.621 L 284.08 372.621 Z M 352.562 349.828 L 351.374 385.043 L 378.919 350.045 L 389.937 357.39 L 365.092 386.231 L 391.448 417.448 L 377.622 426.09 L 351.266 388.824 L 351.05 396.817 L 352.345 424.902 L 337.223 424.902 L 338.519 398.654 L 337.223 352.53 L 352.562 349.828 Z M 411.752 369.92 L 410.455 396.817 L 411.644 422.201 L 397.17 424.902 L 398.466 398.654 L 397.278 372.621 L 411.752 369.92 Z M 396.521 354.095 C 396.521 354.095 396.521 353.493 396.521 352.287 C 396.521 351.08 397.457 349.523 399.329 347.615 C 401.202 345.706 403.362 344.752 405.81 344.752 C 408.259 344.752 410.131 345.418 411.427 346.75 C 412.724 348.084 413.372 350.081 413.372 352.746 C 413.372 355.409 412.454 357.697 410.618 359.605 C 408.782 361.512 406.657 362.467 404.245 362.467 C 401.832 362.467 399.941 361.674 398.573 360.091 C 397.206 358.507 396.521 356.508 396.521 354.095 Z M 427.842 372.621 L 427.842 360.846 L 442.424 358.039 L 441.02 372.621 L 454.091 372.621 L 452.902 381.479 L 440.589 381.479 L 440.048 404.054 C 440.048 407.439 440.373 409.689 441.02 410.805 C 441.668 411.922 442.857 412.48 444.586 412.48 C 446.313 412.48 448.618 412.084 451.499 411.291 L 452.146 418.961 C 447.393 422.921 443.217 424.902 439.616 424.902 C 436.015 424.902 433.063 423.587 430.76 420.96 C 428.455 418.331 427.302 414.892 427.302 410.643 L 427.95 398.545 L 427.842 381.479 L 420.389 381.479 L 421.577 372.621 L 427.842 372.621 Z" style="fill: rgb(75, 50, 195); white-space: pre;"/>
</svg>