<?xml version="1.0" encoding="utf-8"?>
<svg viewBox="0 0 500 500" xmlns="http://www.w3.org/2000/svg">
  <g style="" transform="matrix(1.224879, 0, 0, 1.224879, 69.415955, 32.99221)">
    <path fill="#8080F2" d="M97.021,99.016l48.432-27.962c1.212-0.7,2.706-0.7,3.918,0l48.433,27.962 c1.211,0.7,1.959,1.993,1.959,3.393v55.924c0,1.399-0.748,2.693-1.959,3.394l-48.433,27.962c-1.212,0.7-2.706,0.7-3.918,0 l-48.432-27.962c-1.212-0.7-1.959-1.994-1.959-3.394v-55.924C95.063,101.009,95.81,99.716,97.021,99.016"/>
    <path fill="#4B32C3" d="M 225.419 87.843 C 225.419 86.362 224.516 84.994 223.233 84.253 L 149.461 41.726 C 148.179 40.985 146.575 40.985 145.293 41.726 L 71.586 84.253 C 70.303 84.994 69.419 86.362 69.419 87.843 L 69.419 172.898 C 69.419 174.379 70.316 175.747 71.598 176.488 L 145.365 219.015 C 146.647 219.755 148.253 219.755 149.535 219.015 L 223.245 176.488 C 224.528 175.747 225.419 174.378 225.419 172.898 Z M 174.2 266.665 C 173.98 267.303 172.807 267.858 171.794 267.868 L 123.263 267.868 C 122.213 267.861 121.49 267.321 121.299 266.623 L 113.135 234.859 C 108.022 232.88 103.032 230.493 98.211 227.746 L 69.317 245.461 C 68.711 245.756 67.489 245.319 66.766 244.61 L 32.449 210.294 C 31.711 209.546 31.582 208.653 31.941 208.024 L 49.798 177.813 C 47.459 173.419 45.405 168.9 43.67 164.288 L 10.26 156.275 C 9.622 156.055 9.067 154.882 9.057 153.869 L 9.057 105.338 C 9.064 104.288 9.604 103.565 10.302 103.374 L 43.662 94.8 C 45.4 90.175 47.458 85.642 49.803 81.235 L 31.524 51.423 C 31.229 50.816 31.666 49.594 32.375 48.871 L 66.691 14.554 C 67.439 13.817 68.332 13.687 68.961 14.046 L 98.151 31.299 C 102.961 28.552 107.939 26.162 113.04 24.179 L 120.68 -7.675 C 120.9 -8.313 122.073 -8.868 123.086 -8.878 L 171.617 -8.878 C 172.667 -8.871 173.39 -8.331 173.581 -7.633 L 181.748 24.144 C 186.865 26.128 191.859 28.52 196.684 31.273 L 225.461 13.629 C 226.068 13.334 227.29 13.771 228.013 14.48 L 262.33 48.796 C 263.067 49.544 263.197 50.437 262.838 51.066 L 245.044 81.171 C 247.393 85.58 249.456 90.116 251.198 94.744 L 284.6 102.755 C 285.238 102.975 285.793 104.148 285.803 105.161 L 285.803 153.692 C 285.796 154.742 285.256 155.465 284.558 155.656 L 251.232 164.221 C 249.494 168.844 247.438 173.374 245.094 177.778 L 263.357 207.565 C 263.652 208.171 263.215 209.393 262.506 210.117 L 228.189 244.434 C 227.441 245.172 226.549 245.301 225.919 244.942 L 196.736 227.693 C 191.923 230.439 186.943 232.828 181.84 234.81 Z" style=""/>
  </g>
  <path d="M 45.909 476.694 L 47.206 450.446 L 45.909 402.161 L 86.416 402.161 L 85.227 413.719 L 60.924 413.719 L 60.275 432.838 L 81.879 432.838 L 80.691 444.288 L 59.843 444.288 L 59.735 448.609 L 60.491 465.244 L 86.632 465.244 L 85.444 476.694 L 45.909 476.694 Z M 100.24 455.198 C 106.362 461.319 112.483 464.38 118.603 464.38 C 121.772 464.38 124.311 463.642 126.219 462.165 C 128.128 460.69 129.081 458.782 129.081 456.441 C 129.081 454.1 127.929 452.119 125.625 450.5 C 123.32 448.879 120.53 447.457 117.253 446.232 C 113.976 445.009 110.718 443.621 107.477 442.074 C 104.237 440.526 101.465 438.31 99.16 435.431 C 96.856 432.55 95.703 429.058 95.703 424.954 C 95.703 418.472 98.405 412.873 103.805 408.157 C 109.205 403.44 115.614 401.082 123.033 401.082 C 126.417 401.082 129.693 401.441 132.862 402.161 C 136.031 402.881 139.091 403.925 142.044 405.293 L 134.698 421.065 C 132.683 419.48 129.927 418.021 126.436 416.69 C 122.942 415.357 119.881 414.692 117.253 414.692 C 114.625 414.692 112.501 415.321 110.88 416.582 C 109.259 417.841 108.45 419.517 108.45 421.604 C 108.45 423.693 109.602 425.548 111.907 427.167 C 114.211 428.788 117.002 430.21 120.278 431.434 C 123.554 432.658 126.831 434.008 130.108 435.485 C 133.383 436.961 136.174 439.139 138.478 442.02 C 140.783 444.901 141.935 448.393 141.935 452.497 C 141.935 459.268 139.235 465.191 133.834 470.267 C 128.434 475.344 122.132 477.882 114.931 477.882 C 109.53 477.882 104.741 476.585 100.565 473.993 C 96.892 471.76 94.3 469.78 92.787 468.053 L 91.815 466.864 L 100.24 455.198 Z M 153.38 476.694 L 154.675 450.446 L 153.38 404.322 L 168.718 401.62 L 167.206 448.609 L 167.962 466.107 L 190.106 464.38 L 188.918 476.694 L 153.38 476.694 Z M 211.496 421.712 L 210.199 448.609 L 211.388 473.993 L 196.912 476.694 L 198.209 450.446 L 197.021 424.413 L 211.496 421.712 Z M 196.265 405.887 C 196.265 405.887 196.265 405.285 196.265 404.079 C 196.265 402.872 197.201 401.315 199.073 399.407 C 200.945 397.498 203.106 396.544 205.554 396.544 C 208.002 396.544 209.875 397.21 211.171 398.542 C 212.468 399.876 213.115 401.873 213.115 404.538 C 213.115 407.201 212.198 409.489 210.361 411.397 C 208.524 413.304 206.401 414.259 203.988 414.259 C 201.576 414.259 199.686 413.466 198.317 411.883 C 196.949 410.299 196.265 408.3 196.265 405.887 Z M 254.699 449.365 C 254.699 444.396 254.266 441.084 253.402 439.428 C 252.537 437.772 250.522 436.944 247.354 436.944 C 244.185 436.944 240.583 438.204 236.551 440.723 L 236.551 448.609 L 237.74 473.993 L 223.265 476.694 L 224.561 450.446 C 224.273 440.795 223.482 432.154 222.185 424.521 L 235.254 421.712 C 235.758 425.889 236.119 429.958 236.335 433.918 C 237.416 432.478 238.64 431.056 240.007 429.652 C 241.376 428.247 243.536 426.663 246.488 424.899 C 249.441 423.135 252.557 422.253 255.833 422.253 C 259.109 422.253 261.864 423.531 264.096 426.087 C 266.328 428.644 267.444 432.119 267.444 436.511 L 266.796 448.609 L 267.984 474.534 L 253.402 477.234 L 254.699 449.365 Z M 284.081 424.413 L 284.081 412.638 L 298.663 409.831 L 297.26 424.413 L 310.33 424.413 L 309.141 433.271 L 296.828 433.271 L 296.287 455.846 C 296.287 459.231 296.611 461.481 297.26 462.597 C 297.908 463.714 299.096 464.272 300.825 464.272 C 302.552 464.272 304.857 463.876 307.737 463.083 L 308.386 470.753 C 303.632 474.713 299.456 476.694 295.856 476.694 C 292.255 476.694 289.302 475.379 286.998 472.752 C 284.694 470.123 283.542 466.684 283.542 462.435 L 284.189 450.337 L 284.081 433.271 L 276.628 433.271 L 277.816 424.413 L 284.081 424.413 Z M 352.563 401.62 L 351.375 436.835 L 378.92 401.837 L 389.938 409.182 L 365.093 438.023 L 391.449 469.24 L 377.623 477.882 L 351.267 440.616 L 351.051 448.609 L 352.346 476.694 L 337.224 476.694 L 338.52 450.446 L 337.224 404.322 L 352.563 401.62 Z M 411.753 421.712 L 410.456 448.609 L 411.645 473.993 L 397.171 476.694 L 398.467 450.446 L 397.279 424.413 L 411.753 421.712 Z M 396.522 405.887 C 396.522 405.887 396.522 405.285 396.522 404.079 C 396.522 402.872 397.458 401.315 399.33 399.407 C 401.203 397.498 403.363 396.544 405.811 396.544 C 408.26 396.544 410.132 397.21 411.428 398.542 C 412.725 399.876 413.373 401.873 413.373 404.538 C 413.373 407.201 412.455 409.489 410.619 411.397 C 408.783 413.304 406.658 414.259 404.246 414.259 C 401.833 414.259 399.942 413.466 398.574 411.883 C 397.207 410.299 396.522 408.3 396.522 405.887 Z M 427.843 424.413 L 427.843 412.638 L 442.425 409.831 L 441.021 424.413 L 454.092 424.413 L 452.903 433.271 L 440.59 433.271 L 440.049 455.846 C 440.049 459.231 440.374 461.481 441.021 462.597 C 441.669 463.714 442.858 464.272 444.587 464.272 C 446.314 464.272 448.619 463.876 451.5 463.083 L 452.147 470.753 C 447.394 474.713 443.218 476.694 439.617 476.694 C 436.016 476.694 433.064 475.379 430.761 472.752 C 428.456 470.123 427.303 466.684 427.303 462.435 L 427.951 450.337 L 427.843 433.271 L 420.39 433.271 L 421.578 424.413 L 427.843 424.413 Z" style="fill: rgb(75, 50, 195); white-space: pre;"/>
</svg>